<svg xmlns="http://www.w3.org/2000/svg" viewBox="0 0 1200 720" role="img" aria-labelledby="title desc">
  <title id="title">Imaging services illustration</title>
  <desc id="desc">Diagnostic imaging screen and scanner with x-ray visuals.</desc>
  <defs>
    <linearGradient id="bg" x1="0" y1="0" x2="1" y2="1">
      <stop offset="0%" stop-color="#eefcff"/>
      <stop offset="100%" stop-color="#d9f4ff"/>
    </linearGradient>
    <linearGradient id="accent" x1="0" y1="0" x2="1" y2="1">
      <stop offset="0%" stop-color="#29b7e7"/>
      <stop offset="100%" stop-color="#2472d5"/>
    </linearGradient>
  </defs>
  <rect width="1200" height="720" fill="url(#bg)"/>
  <circle cx="1035" cy="120" r="96" fill="#ffffff" opacity="0.36"/>
  <circle cx="165" cy="580" r="140" fill="#ffffff" opacity="0.28"/>
  <rect x="80" y="70" width="1040" height="580" rx="42" fill="#ffffff" opacity="0.92"/>
  <g transform="translate(195 140)">
    <rect x="92" y="72" width="340" height="258" rx="28" fill="#eff9ff" stroke="#d7ecfb" stroke-width="8"/>
    <rect x="220" y="330" width="80" height="34" rx="17" fill="#3e72c7"/>
    <rect x="156" y="362" width="208" height="16" rx="8" fill="#3e72c7"/>
    <circle cx="268" cy="186" r="66" fill="#e1f8ff"/>
    <path d="M268 122 v128 M204 186 h128" stroke="#2c8cdd" stroke-width="10" stroke-linecap="round" opacity="0.8"/>
    <circle cx="268" cy="158" r="15" fill="#2c8cdd"/>
    <circle cx="268" cy="214" r="15" fill="#2c8cdd"/>
    <rect x="540" y="132" width="222" height="188" rx="56" fill="url(#accent)"/>
    <circle cx="648" cy="226" r="62" fill="#ffffff" opacity="0.9"/>
    <circle cx="648" cy="226" r="30" fill="none" stroke="#7edcff" stroke-width="14"/>
    <rect x="480" y="188" width="84" height="76" rx="34" fill="#73d5f3"/>
    <rect x="764" y="188" width="84" height="76" rx="34" fill="#73d5f3"/>
    <rect x="580" y="320" width="136" height="96" rx="20" fill="#eff9ff" stroke="#d7ecfb" stroke-width="8"/>
    <path d="M624 346 h48 l26 20 -34 28 h-38 l-14-15z" fill="#2c8cdd" opacity="0.82"/>
  </g>
</svg>
